<svg id="Layer_2" enable-background="new 0 0 32 32" height="512" viewBox="0 0 32 32" width="512" xmlns="http://www.w3.org/2000/svg"><path d="m28.83879 1.00682c-1.34277-1.34277-3.5283-1.34277-4.87107.00208l-1.99385 2.00531-1.65841 1.65841h-17.11542c-1.76467 0-3.20016 1.43549-3.20016 3.20016v20.92706c0 1.76467 1.43549 3.20016 3.20016 3.20016h20.92706c1.76467 0 3.20016-1.43549 3.20016-3.20016v-17.10578c.89679-.90545 2.75104-2.75976 3.66374-3.66191 1.34467-1.34227 1.34563-3.52764.00206-4.87106 0 0-2.15427-2.15427-2.15427-2.15427zm-15.32783 21.47709-4.18875.19376.19376-4.18875 13.2121-13.21627 3.99915 3.99915zm11.68286 6.31593c0 .58857-.47815 1.06672-1.06672 1.06672h-20.92706c-.58857 0-1.06672-.47815-1.06672-1.06672v-20.92706c0-.58857.47815-1.06672 1.06672-1.06672h14.97156l-10.45676 10.46718c-.18855.18855-.29897.43961-.31147.70524l-.26668 5.77007c-.02559.44305.25515.88114.67139 1.03755.14684.02452.29131.085.44324.0771 0-.00001 5.77008-.26669 5.77008-.26669.26564-.0125.51669-.12292.70524-.31147l10.46718-10.45676zm4.29083-22.27817-1.24902 1.24173-3.99916-3.99915 1.24173-1.24902c.51044-.51044 1.34173-.51044 1.85217 0l2.15427 2.15427c.51045.51044.51045 1.34173.00001 1.85217z"/></svg>