<svg width="71" height="71" viewBox="0 0 71 71" fill="none" xmlns="http://www.w3.org/2000/svg">
<g clip-path="url(#clip0_12_52)">
<g clip-path="url(#clip1_12_52)">
<g clip-path="url(#clip2_12_52)">
<g clip-path="url(#clip3_12_52)">
<g clip-path="url(#clip4_12_52)">
<path d="M35.5 56.2929C46.9836 56.2929 56.2929 46.9836 56.2929 35.5C56.2929 24.0164 46.9836 14.7071 35.5 14.7071C24.0164 14.7071 14.7072 24.0164 14.7072 35.5C14.7072 46.9836 24.0164 56.2929 35.5 56.2929Z" fill="#E6B17E"/>
<g clip-path="url(#clip5_12_52)">
<path d="M48.4734 26.1325V23.0989C48.4734 22.4535 48.1507 21.8081 47.6343 21.3562C47.118 20.9044 46.408 20.7754 45.7625 20.9044L31.2401 23.6153C30.1428 23.8089 29.3683 24.7771 29.3683 25.8098V29.2952V42.1395C28.6583 41.6877 27.8192 41.365 26.9156 41.365C24.5275 41.365 22.5266 43.3013 22.5266 45.754C22.5266 48.2067 24.4629 50.143 26.9156 50.143C29.3683 50.143 31.3046 48.2067 31.3046 45.754V30.1343L46.4725 27.2943V38.7187C45.7625 38.2669 44.9234 37.9441 44.0198 37.9441C41.6317 37.9441 39.6308 39.8805 39.6308 42.3331C39.6308 44.7858 41.5671 46.7222 44.0198 46.7222C46.2789 46.7222 48.1507 44.9795 48.4088 42.785C48.4088 42.7204 48.4088 42.6559 48.4088 42.5913V26.1325C48.4734 26.1325 48.4734 26.1325 48.4734 26.1325ZM26.9801 48.2067C25.6247 48.2067 24.5275 47.1094 24.5275 45.754C24.5275 44.3986 25.6247 43.3013 26.9801 43.3013C28.3356 43.3013 29.4328 44.3986 29.4328 45.754C29.4328 47.1094 28.3356 48.2067 26.9801 48.2067ZM31.3691 28.1979V25.8098C31.3691 25.6807 31.4982 25.5516 31.6273 25.4871L46.1498 22.7762C46.2789 22.7762 46.3434 22.8408 46.408 22.8408C46.4725 22.9053 46.5371 22.9699 46.5371 23.0989V25.358L31.3691 28.1979ZM44.0844 44.7858C42.7289 44.7858 41.6317 43.6886 41.6317 42.3331C41.6317 40.9777 42.7289 39.8805 44.0844 39.8805C45.4398 39.8805 46.5371 40.9777 46.5371 42.3331C46.5371 43.6886 45.4398 44.7858 44.0844 44.7858Z" fill="white"/>
</g>
</g>
<path d="M8.66404 26.8289L8.30574 27.9094C8.29509 27.9413 8.27379 27.952 8.2421 27.9416L1.62667 25.7269C1.60106 25.7185 1.59269 25.7013 1.60106 25.6759L2.21445 23.8263C2.41097 23.2338 2.74568 22.8255 3.21885 22.6013C3.69353 22.3777 4.23922 22.3681 4.85565 22.5724C5.31081 22.7233 5.67621 22.9447 5.95184 23.2363C6.2262 23.5259 6.40497 23.8449 6.48814 24.193C6.57284 24.5419 6.55838 24.8873 6.44504 25.2291L6.20288 25.9599L8.63209 26.7652C8.66404 26.7759 8.67469 26.7972 8.66404 26.8289ZM3.12908 24.9408L5.03619 25.5729L5.27835 24.8424C5.34656 24.6365 5.30853 24.4253 5.16399 24.2087C5.01743 23.9935 4.78668 23.8337 4.472 23.7295C4.22121 23.6463 3.993 23.645 3.78735 23.7257C3.58272 23.8086 3.44072 23.9689 3.36186 24.207L3.12908 24.9408Z" fill="#4D331F"/>
<path d="M12.8954 18.373L11.1285 21.1347C11.1141 21.1572 11.0925 21.1595 11.0641 21.1415L5.20204 17.3788C5.17364 17.3605 5.16857 17.3374 5.18658 17.309L5.79464 16.3587C5.8129 16.3303 5.83597 16.3252 5.86437 16.3434L10.7167 19.4601L11.8431 17.6995C11.8621 17.6699 11.8859 17.664 11.9141 17.6823L12.8815 18.301C12.9099 18.3193 12.9144 18.3431 12.8954 18.373Z" fill="#4D331F"/>
<path d="M14.8147 16.0308L10.9622 10.0802C10.9487 10.0559 10.9518 10.0346 10.9713 10.0163L12.0449 9.0099C12.0657 8.99037 12.0878 8.98809 12.1111 9.00305L17.7624 13.2671C17.7903 13.2871 17.7921 13.3084 17.7675 13.3315L16.9462 14.1016C16.9267 14.1201 16.9028 14.1194 16.8749 14.0991L16.2846 13.6355L15.2774 14.5798L15.704 15.197C15.722 15.2262 15.7212 15.25 15.7017 15.2683L14.8786 16.0399C14.8591 16.0584 14.8375 16.0554 14.8147 16.0308ZM13.0653 11.2532L14.6843 13.6482L15.3951 12.9818L13.1388 11.1843L12.8376 10.9512L13.0653 11.2532Z" fill="#4D331F"/>
<path d="M21.9963 10.5711L20.9828 11.1528C20.9653 11.163 20.9498 11.1561 20.9364 11.1331L19.5088 8.62625L16.2869 5.74669C16.2676 5.72666 16.2697 5.70992 16.2933 5.69648L17.2715 5.13482C17.3007 5.11809 17.325 5.11961 17.3443 5.13964L19.3541 7.13474L18.6553 4.38704C18.6477 4.36041 18.6555 4.34038 18.6791 4.32694L19.6663 3.76021C19.6896 3.74677 19.7051 3.75336 19.7124 3.77999L20.5459 7.9842L22.011 10.5159C22.0245 10.5392 22.0194 10.5577 21.9963 10.5711Z" fill="#4D331F"/>
<path d="M31.861 7.26837L30.7283 7.45855C30.6951 7.46413 30.6758 7.45018 30.6702 7.41697L29.5261 0.535546C29.5215 0.508921 29.5327 0.493453 29.5593 0.488889L30.6819 0.300739C30.7085 0.296175 30.724 0.307332 30.7283 0.333703L31.8924 7.21208C31.898 7.2453 31.8876 7.26406 31.861 7.26837Z" fill="#4D331F"/>
<path d="M36.6495 7.11116L35.6364 7.05791C35.5827 7.05512 35.5571 7.03027 35.5593 6.98311L35.9121 0.0765827C35.9149 0.0228255 35.9433 -0.00278517 35.997 0.000257686L36.9094 0.0481827L38.4133 4.13297L38.5685 0.216047C38.5713 0.16229 38.603 0.136933 38.6636 0.140229L39.6667 0.192972C39.7088 0.195254 39.7283 0.223147 39.7255 0.276904L39.3723 7.19357C39.3703 7.23389 39.3515 7.25316 39.3163 7.25113L38.4239 7.20422L36.8657 3.38189L36.7471 7.03534C36.7443 7.0891 36.7118 7.11446 36.6495 7.11116Z" fill="#4D331F"/>
<path d="M48.9243 10.4525L47.9017 9.93012C47.8776 9.91795 47.8733 9.89665 47.8887 9.86673L50.5218 4.71314L49.3463 4.11243C49.3163 4.09721 49.309 4.07439 49.3245 4.04473L49.8514 3.03551C49.8636 3.01142 49.8818 3.00559 49.9057 3.01801L53.3421 4.77374C53.372 4.78896 53.3808 4.80874 53.3687 4.83283L52.8506 5.84635C52.8354 5.87627 52.8156 5.88515 52.7918 5.87298L51.6074 5.2677L48.9832 10.4259C48.9679 10.4558 48.9482 10.4646 48.9243 10.4525Z" fill="#4D331F"/>
<path d="M54.1332 14.2008C53.8616 13.9667 53.6712 13.6802 53.5614 13.3412C53.4526 13.0009 53.4318 12.654 53.4985 12.3008C53.5667 11.9485 53.7222 11.6316 53.9651 11.3499L57.296 7.51688C57.3135 7.4966 57.3325 7.49507 57.3528 7.51257L58.2132 8.25427C58.2334 8.27176 58.235 8.29078 58.2172 8.31107L54.9018 12.1572C54.7524 12.3307 54.6809 12.5254 54.6872 12.7422C54.6936 12.9565 54.7765 13.1322 54.9357 13.2697C55.1001 13.4114 55.2887 13.4695 55.5017 13.4444C55.717 13.4188 55.8993 13.3194 56.0487 13.1462L59.3644 9.29974C59.3819 9.27946 59.4009 9.27793 59.4212 9.29568L60.2833 10.0389C60.3036 10.0564 60.3051 10.0754 60.2876 10.0957L56.9874 13.9553C56.7402 14.2421 56.4468 14.4445 56.1072 14.5626C55.7677 14.6808 55.4239 14.711 55.076 14.6534C54.7291 14.5943 54.4149 14.4434 54.1332 14.2008Z" fill="#4D331F"/>
<path d="M58.5626 18.9547L57.9865 18.1195C57.9558 18.0751 57.9601 18.0396 57.9986 18.0127L63.686 14.0783C63.7304 14.0476 63.7676 14.0547 63.7983 14.0988L64.3169 14.8509L61.9982 18.5351L65.1963 16.2681C65.2406 16.2375 65.2799 16.2471 65.3142 16.297L65.8845 17.1239C65.9083 17.1587 65.8982 17.1911 65.8538 17.2218L60.1586 21.1621C60.1253 21.1849 60.0987 21.1818 60.0784 21.1527L59.5713 20.4173L61.6488 16.8506L58.682 18.9857C58.6376 19.0163 58.5978 19.0059 58.5626 18.9547Z" fill="#4D331F"/>
<path d="M62.7683 27.4945L61.6379 24.4172C61.6285 24.3918 61.6397 24.3735 61.6714 24.3619L68.2229 21.9656C68.2483 21.9562 68.2655 21.9644 68.2749 21.9897L69.3985 25.048C69.4083 25.0749 69.3974 25.0942 69.3657 25.1059L68.2972 25.4984C68.2718 25.5078 68.2543 25.4989 68.2447 25.472L67.5274 23.5198L66.0419 24.0657L66.7593 26.0177C66.7692 26.0446 66.7616 26.0626 66.7362 26.072L65.6616 26.4774C65.6362 26.4868 65.6187 26.4779 65.6088 26.4511L64.8882 24.4894L63.2204 25.1021L63.9411 27.0637C63.951 27.0906 63.9401 27.1098 63.9086 27.1215L62.8211 27.5209C62.7957 27.5303 62.7782 27.5214 62.7683 27.4945Z" fill="#4D331F"/>
<path d="M1.95631 46.3955L1.59802 45.315C1.58737 45.283 1.59802 45.2617 1.62997 45.2514L8.25807 43.0749C8.28368 43.0666 8.30067 43.075 8.30904 43.1008L8.92218 44.9501C9.11869 45.5427 9.0941 46.0701 8.84864 46.5326C8.60166 46.9957 8.16983 47.3294 7.55314 47.5337C7.09798 47.6846 6.67274 47.7254 6.27768 47.6562C5.88464 47.588 5.55069 47.4389 5.27582 47.2094C4.99943 46.9802 4.80468 46.6947 4.69134 46.3529L4.44918 45.6221L2.01996 46.4274C1.98801 46.4381 1.96671 46.4274 1.95631 46.3955ZM7.52272 44.6032L5.61586 45.2354L5.85802 45.9659C5.92623 46.1718 6.08294 46.3186 6.32839 46.4059C6.57461 46.4908 6.85506 46.4812 7.16949 46.3767C7.42027 46.2935 7.60411 46.1581 7.72101 45.9705C7.83562 45.7818 7.85363 45.5683 7.77477 45.3307L7.52272 44.6032Z" fill="#4D331F"/>
<path d="M6.94254 56.4361L5.17565 53.6745C5.1612 53.6519 5.16804 53.6314 5.19644 53.6134L11.0697 49.8676C11.0981 49.8494 11.1211 49.8547 11.1394 49.8828L11.7475 50.8332C11.7657 50.8616 11.7604 50.8847 11.732 50.9029L6.86875 54.0026L7.99511 55.7629C8.01413 55.7926 8.00957 55.8166 7.98117 55.8347L7.01379 56.4536C6.98539 56.4719 6.96181 56.466 6.94254 56.4361Z" fill="#4D331F"/>
<path d="M10.0503 60.0515L15.7402 55.8238C15.7635 55.8088 15.7851 55.8103 15.8046 55.8288L16.8782 56.8353C16.899 56.8548 16.9028 56.8768 16.8891 56.9009L12.9981 62.8152C12.9801 62.8444 12.9585 62.8474 12.9342 62.8244L12.1129 62.0545C12.0933 62.036 12.0926 62.0124 12.1106 61.9833L12.5353 61.3643L11.5281 60.42L10.9396 60.8853C10.9117 60.9053 10.8879 60.9061 10.8683 60.8876L10.0452 60.116C10.0257 60.0974 10.0272 60.0761 10.0503 60.0515ZM14.7051 57.9981L12.4194 59.7681L13.1302 60.4344L14.7787 58.0671L14.9919 57.7512L14.7051 57.9981Z" fill="#4D331F"/>
<path d="M18.4775 66.5579L17.4642 65.9762C17.4467 65.9661 17.4447 65.9494 17.4582 65.926L18.9033 63.4294L19.7654 59.1952C19.773 59.1686 19.7885 59.1618 19.8118 59.1752L20.7901 59.7369C20.8192 59.7536 20.8302 59.7754 20.8225 59.8023L20.1131 62.5436L22.1338 60.5549C22.153 60.5348 22.1743 60.5316 22.1977 60.545L23.1848 61.1117C23.2081 61.1252 23.2102 61.1419 23.1909 61.1619L19.9804 64.0012L18.5328 66.5432C18.5194 66.5666 18.5011 66.5716 18.4775 66.5579Z" fill="#4D331F"/>
<path d="M30.6918 70.7016L29.5593 70.5116C29.5261 70.506 29.5124 70.4868 29.5177 70.4533L30.6819 63.5752C30.6865 63.5486 30.7019 63.5377 30.7283 63.542L31.8511 63.7304C31.8777 63.7349 31.8886 63.7504 31.8841 63.7768L30.74 70.6584C30.7344 70.6917 30.7184 70.7061 30.6918 70.7016Z" fill="#4D331F"/>
<path d="M37.0202 70.9465L36.0069 70.9997C35.9531 71.0025 35.925 70.9805 35.9227 70.9333L35.55 64.0281C35.5472 63.9743 35.5725 63.9459 35.6263 63.9431L36.5386 63.8952L38.4622 67.7999L38.2064 63.8886C38.2036 63.8348 38.2325 63.8064 38.2928 63.8031L39.296 63.7504C39.3381 63.7481 39.3604 63.774 39.3632 63.8277L39.7364 70.7431C39.7384 70.7835 39.722 70.8045 39.6867 70.8065L38.7946 70.8534L36.8444 67.2152L37.1092 70.861C37.1119 70.9148 37.0823 70.9435 37.0202 70.9465Z" fill="#4D331F"/>
<path d="M52.1396 66.8412L51.1169 67.3635C51.0929 67.3757 51.0733 67.3668 51.0581 67.3369L48.425 62.1833L47.2495 62.784C47.2196 62.7992 47.197 62.7919 47.1815 62.762L46.6726 61.7439C46.6604 61.7198 46.6663 61.7018 46.6904 61.6894L50.1268 59.9336C50.1567 59.9184 50.1777 59.9227 50.1899 59.9466L50.7079 60.9603C50.7232 60.9903 50.7188 61.0113 50.695 61.0235L49.5106 61.6288L52.1525 66.7778C52.1677 66.8077 52.1634 66.8287 52.1396 66.8412Z" fill="#4D331F"/>
<path d="M58.8793 62.3053C58.6077 62.5393 58.2963 62.6856 57.9449 62.7445C57.5922 62.8018 57.246 62.7713 56.9065 62.6532C56.5683 62.5338 56.2777 62.3334 56.0347 62.0517L52.7345 58.1924C52.717 58.1721 52.7183 58.1531 52.7388 58.1353L53.5989 57.3936C53.6192 57.3761 53.6382 57.3774 53.656 57.3979L56.9714 61.2441C57.1208 61.4175 57.3031 61.5169 57.5184 61.5423C57.7311 61.5676 57.9173 61.5116 58.0768 61.3744C58.2411 61.2327 58.3265 61.0547 58.3329 60.8404C58.3394 60.6239 58.2679 60.4289 58.1186 60.2554L54.8029 56.4092C54.7854 56.389 54.7867 56.3699 54.8072 56.3522L55.6693 55.609C55.6896 55.5915 55.7086 55.5927 55.7261 55.6133L59.0571 59.4463C59.3043 59.7331 59.4613 60.0531 59.5282 60.4063C59.5951 60.7595 59.5743 61.1041 59.4661 61.4398C59.3565 61.7741 59.161 62.0626 58.8793 62.3053Z" fill="#4D331F"/>
<path d="M64.38 56.058L63.8039 56.8933C63.7732 56.9377 63.7387 56.9463 63.6999 56.9197L58.0014 53.0017C57.9571 52.9711 57.9502 52.9338 57.9806 52.8894L58.4994 52.1373L62.767 52.9957L59.5117 50.8119C59.4673 50.7812 59.4625 50.7412 59.4967 50.6912L60.067 49.8643C60.0909 49.8296 60.1251 49.8275 60.1695 49.8582L65.8763 53.782C65.9096 53.8048 65.9162 53.8309 65.8961 53.8598L65.3887 54.5954L61.3164 53.9207L64.3666 55.9353C64.4109 55.966 64.4155 56.0068 64.38 56.058Z" fill="#4D331F"/>
<path d="M69.4018 45.9428L68.2713 49.0204C68.262 49.0458 68.2417 49.0526 68.21 49.0407L61.6653 46.6257C61.6399 46.6163 61.6321 46.5991 61.6415 46.574L62.765 43.5154C62.7749 43.4885 62.7957 43.4809 62.8272 43.4926L63.8955 43.8851C63.9208 43.8945 63.9284 43.9125 63.9188 43.9394L63.2014 45.8914L64.6868 46.437L65.4042 44.485C65.4141 44.4582 65.4316 44.4493 65.4567 44.4587L66.5382 44.8451C66.5635 44.8545 66.5711 44.8725 66.5612 44.8994L65.8406 46.861L67.5086 47.4736L68.2292 45.512C68.2391 45.4851 68.2599 45.4775 68.2914 45.4892L69.3787 45.8886C69.404 45.8979 69.4116 45.916 69.4018 45.9428Z" fill="#4D331F"/>
<path d="M2.95792 35.5003C2.95792 35.053 3.32052 34.6904 3.76782 34.6904C4.21512 34.6904 4.57773 35.053 4.57773 35.5003C4.57773 35.9476 4.21512 36.3102 3.76782 36.3102C3.32052 36.3102 2.95792 35.9476 2.95792 35.5003Z" fill="#4D331F"/>
<path d="M66.5612 35.5003C66.5612 35.053 66.9239 34.6904 67.3712 34.6904C67.8185 34.6904 68.1811 35.053 68.1808 35.5003C68.1808 35.9476 67.8182 36.3102 67.3712 36.3102C66.9239 36.3102 66.5612 35.9476 66.5612 35.5003Z" fill="#4D331F"/>
</g>
</g>
</g>
</g>
<defs>
<clipPath id="clip0_12_52">
<rect width="71" height="71" fill="white"/>
</clipPath>
<clipPath id="clip1_12_52">
<rect width="71" height="71" fill="white"/>
</clipPath>
<clipPath id="clip2_12_52">
<rect width="71" height="71" fill="white"/>
</clipPath>
<clipPath id="clip3_12_52">
<rect width="71" height="71" fill="white"/>
</clipPath>
<clipPath id="clip4_12_52">
<rect width="41.8372" height="41.8372" fill="white" transform="translate(14.5814 14.5814)"/>
</clipPath>
<clipPath id="clip5_12_52">
<rect width="29.286" height="29.286" fill="white" transform="translate(20.857 20.857)"/>
</clipPath>
</defs>
</svg>
