<svg clip-rule="evenodd" fill-rule="evenodd" height="300" image-rendering="optimizeQuality" shape-rendering="geometricPrecision" text-rendering="geometricPrecision" viewBox="0 0 12.0701 12.0701" width="300" xmlns="http://www.w3.org/2000/svg"><g id="&#x56FE;&#x5C42;_x0020_1"><path d="m1.20701 0h9.65607c.663855 0 1.20701.543154 1.20701 1.20701v9.65607c0 .663855-.543154 1.20701-1.20701 1.20701h-9.65607c-.663855 0-1.20701-.543154-1.20701-1.20701v-9.65607c0-.663855.543154-1.20701 1.20701-1.20701zm1.71048 10.3031c0 .138853-.112622.251476-.251476.251476-.138853 0-.251476-.112622-.251476-.251476 0-.999536.405393-1.9047 1.0606-2.5599.655206-.655253 1.56041-1.0606 2.5599-1.0606.999488 0 1.9047.405346 2.5599 1.0606.655206.655206 1.0606 1.56037 1.0606 2.5599 0 .138853-.112622.251476-.251476.251476-.138853 0-.251476-.112622-.251476-.251476 0-.860777-.349034-1.6402-.913192-2.20436-.56411-.564158-1.34358-.913192-2.20436-.913192-.860777 0-1.64025.349034-2.20436.913192-.564158.564158-.913192 1.34358-.913192 2.20436zm3.11755-8.66836c.636863 0 1.21371.258319 1.63127.675877.417558.417463.675877.994356.675877 1.63122 0 .636958-.258319 1.21376-.675877 1.63131-.417558.417558-.994309.675877-1.63127.675877-.636958 0-1.21371-.258319-1.63127-.675877-.417558-.417558-.675877-.994356-.675877-1.63131 0-.636863.258319-1.21376.675877-1.63122.417558-.417558.994404-.675877 1.63127-.675877zm1.29321 1.01393c-.330929-.330929-.788214-.535693-1.29321-.535693-.504995 0-.96228.204764-1.29321.535693-.330929.330882-.535693.788167-.535693 1.29316 0 .505043.204764.962328.535693 1.29326.330929.330929.788214.535693 1.29321.535693.504995 0 .96228-.204764 1.29321-.535693.330929-.330929.535693-.788214.535693-1.29326 0-.504995-.204764-.96228-.535693-1.29316z" fill="#4d331f"/></g></svg>