<?xml version="1.0" encoding="UTF-8"?>
<svg version="1.1" viewBox="0 0 1000 1000" xmlns="http://www.w3.org/2000/svg">
<g>
<svg width="1e3" height="1e3" data-background-color="#ffffff" viewBox="0 0 280 280" xmlns="http://www.w3.org/2000/svg" xmlns:xlink="http://www.w3.org/1999/xlink">
<g>
<svg width="280" height="280" viewBox="0 0 280 280">
<svg width="280" height="280" viewBox="0 0 280 280">
<svg width="280" height="280" viewBox="0 0 280 280">
<svg width="280" height="280" viewBox="0 0 280 280">
<svg width="280" height="280" viewBox="0 0 280 280">
<g transform="translate(57.504 57.504)">
<svg width="164.99" height="164.99" viewBox="0 0 164.9915822768611 164.9915822768611">
<circle cx="82.496" cy="82.496" r="82" fill="#e6b17e" data-fill-palette-color="accent"/>
<svg class="icon-kg-0" x="24.749" y="24.749" width="115.49" height="115.49" enable-background="new 0 0 100 100" data-fill-palette-color="quaternary" version="1.1" viewBox="26.600000000000005 27.326493526370577 40.19999999999999 45.37350647362941" xml:space="preserve" xmlns="http://www.w3.org/2000/svg" xmlns:xlink="http://www.w3.org/1999/xlink"><path d="m66.8 35.5v-4.7c0-1-0.5-2-1.3-2.7s-1.9-0.9-2.9-0.7l-22.5 4.2c-1.7 0.3-2.9 1.8-2.9 3.4v25.3c-1.1-0.7-2.4-1.2-3.8-1.2-3.7 0-6.8 3-6.8 6.8s3 6.8 6.8 6.8 6.8-3 6.8-6.8v-24.2l23.5-4.4v17.7c-1.1-0.7-2.4-1.2-3.8-1.2-3.7 0-6.8 3-6.8 6.8s3 6.8 6.8 6.8c3.5 0 6.4-2.7 6.8-6.1v-0.3-25.5h0.1zm-33.3 34.2c-2.1 0-3.8-1.7-3.8-3.8s1.7-3.8 3.8-3.8 3.8 1.7 3.8 3.8-1.7 3.8-3.8 3.8zm6.8-31v-3.7c0-0.2 0.2-0.4 0.4-0.5l22.5-4.2c0.2 0 0.3 0.1 0.4 0.1 0.1 0.1 0.2 0.2 0.2 0.4v3.5l-23.5 4.4zm19.7 25.7c-2.1 0-3.8-1.7-3.8-3.8s1.7-3.8 3.8-3.8 3.8 1.7 3.8 3.8-1.7 3.8-3.8 3.8z" fill="#fff" data-fill-palette-color="quaternary"/></svg>
</svg>
</g>
<g fill="#4d331f">
<path d="m34.168 105.8-1.413 4.261c-0.042 0.126-0.126 0.168-0.251 0.127l-26.089-8.734c-0.101-0.033-0.134-0.101-0.101-0.201l2.419-7.294c0.775-2.337 2.095-3.947 3.961-4.831 1.872-0.882 4.024-0.92 6.455-0.114 1.795 0.595 3.236 1.468 4.323 2.618 1.082 1.142 1.787 2.4 2.115 3.773 0.334 1.376 0.277 2.738-0.17 4.086l-0.955 2.882 9.58 3.176c0.126 0.042 0.168 0.126 0.126 0.251zm-21.828-7.446 7.521 2.493 0.955-2.881c0.269-0.812 0.119-1.645-0.451-2.499-0.578-0.849-1.488-1.479-2.729-1.89-0.989-0.328-1.889-0.333-2.7-0.015-0.807 0.327-1.367 0.959-1.678 1.898z" data-fill-palette-color="primary"/>
<path d="m50.855 72.457-6.968 10.891c-0.057 0.089-0.142 0.098-0.254 0.027l-23.118-14.839c-0.112-0.072-0.132-0.163-0.061-0.275l2.398-3.748c0.072-0.112 0.163-0.132 0.275-0.06l19.136 12.291 4.442-6.943c0.075-0.117 0.169-0.14 0.28-0.068l3.815 2.44c0.112 0.072 0.13 0.166 0.055 0.284z" data-fill-palette-color="primary"/>
<path d="m58.424 63.22-15.193-23.467c-0.053-0.096-0.041-0.18 0.036-0.252l4.234-3.969c0.082-0.077 0.169-0.086 0.261-0.027l22.287 16.816c0.11 0.079 0.117 0.163 0.02 0.254l-3.239 3.037c-0.077 0.073-0.171 0.07-0.281-0.01l-2.328-1.828-3.972 3.724 1.682 2.434c0.071 0.115 0.068 0.209-9e-3 0.281l-3.246 3.043c-0.077 0.073-0.162 0.061-0.252-0.036zm-6.899-18.841 6.385 9.445 2.803-2.628-8.898-7.089-1.188-0.919z" data-fill-palette-color="primary"/>
<path d="m86.746 41.689-3.997 2.294c-0.069 0.04-0.13 0.013-0.183-0.078l-5.63-9.886-12.706-11.356c-0.076-0.079-0.068-0.145 0.025-0.198l3.858-2.215c0.115-0.066 0.211-0.06 0.287 0.019l7.926 7.868-2.756-10.836c-0.03-0.105 1e-3 -0.184 0.094-0.237l3.893-2.235c0.092-0.053 0.153-0.027 0.182 0.078l3.287 16.58 5.778 9.984c0.053 0.092 0.033 0.165-0.058 0.218z" data-fill-palette-color="primary"/>
<path d="m125.65 28.664-4.467 0.75c-0.131 0.022-0.207-0.033-0.229-0.164l-4.512-27.138c-0.018-0.105 0.026-0.166 0.131-0.184l4.427-0.742c0.105-0.018 0.166 0.026 0.183 0.13l4.591 27.126c0.022 0.131-0.019 0.205-0.124 0.222z" data-fill-palette-color="primary"/>
<path d="m144.53 28.044-3.995-0.21c-0.212-0.011-0.313-0.109-0.304-0.295l1.391-27.237c0.011-0.212 0.123-0.313 0.335-0.301l3.598 0.189 5.931 16.109 0.612-15.447c0.011-0.212 0.136-0.312 0.375-0.299l3.956 0.208c0.166 9e-3 0.243 0.119 0.232 0.331l-1.393 27.277c-8e-3 0.159-0.082 0.235-0.221 0.227l-3.519-0.185-6.145-15.074-0.468 14.408c-0.011 0.212-0.139 0.312-0.385 0.299z" data-fill-palette-color="primary"/>
<path d="m192.94 41.221-4.033-2.06c-0.095-0.048-0.112-0.132-0.051-0.25l10.384-20.324-4.636-2.369c-0.118-0.06-0.147-0.15-0.086-0.267l2.078-3.98c0.048-0.095 0.12-0.118 0.214-0.069l13.552 6.924c0.118 0.06 0.153 0.138 0.105 0.233l-2.043 3.997c-0.06 0.118-0.138 0.153-0.232 0.105l-4.671-2.387-10.349 20.342c-0.06 0.118-0.138 0.153-0.232 0.105z" data-fill-palette-color="primary"/>
<path d="m213.48 56.003c-1.071-0.923-1.822-2.053-2.255-3.39-0.429-1.342-0.511-2.71-0.248-4.103 0.269-1.389 0.882-2.639 1.84-3.75l13.136-15.116c0.069-0.08 0.144-0.086 0.224-0.017l3.393 2.925c0.08 0.069 0.086 0.144 0.016 0.224l-13.075 15.168c-0.589 0.684-0.871 1.452-0.846 2.307 0.025 0.845 0.352 1.538 0.98 2.08 0.648 0.559 1.392 0.788 2.232 0.689 0.849-0.101 1.568-0.493 2.157-1.176l13.076-15.169c0.069-0.08 0.144-0.086 0.224-0.016l3.4 2.931c0.08 0.069 0.086 0.144 0.017 0.224l-13.015 15.221c-0.975 1.131-2.132 1.929-3.471 2.395s-2.695 0.585-4.067 0.358c-1.368-0.233-2.607-0.828-3.718-1.785z" data-fill-palette-color="primary"/>
<path d="m230.95 74.751-2.272-3.294c-0.121-0.175-0.104-0.315 0.048-0.421l22.429-15.516c0.175-0.121 0.322-0.093 0.443 0.081l2.045 2.966-9.144 14.529 12.612-8.94c0.175-0.121 0.33-0.083 0.465 0.114l2.249 3.261c0.094 0.137 0.054 0.265-0.121 0.386l-22.46 15.539c-0.131 0.09-0.236 0.078-0.316-0.037l-2-2.9 8.193-14.066-11.7 8.42c-0.175 0.121-0.332 0.08-0.471-0.122z" data-fill-palette-color="primary"/>
<path d="m247.54 108.43-4.458-12.136c-0.037-0.1 7e-3 -0.172 0.132-0.218l25.837-9.45c0.1-0.037 0.168-5e-3 0.205 0.095l4.431 12.061c0.039 0.106-4e-3 0.182-0.129 0.228l-4.214 1.548c-0.1 0.037-0.169 2e-3 -0.207-0.104l-2.829-7.699-5.858 2.153 2.829 7.698c0.039 0.106 9e-3 0.177-0.091 0.214l-4.238 1.599c-0.1 0.037-0.169 2e-3 -0.208-0.104l-2.842-7.736-6.577 2.416 2.842 7.736c0.039 0.106-4e-3 0.182-0.128 0.228l-4.289 1.575c-0.1 0.037-0.169 2e-3 -0.208-0.104z" data-fill-palette-color="primary"/>
<path d="m7.715 182.97-1.413-4.261c-0.042-0.126 0-0.21 0.126-0.251l26.139-8.583c0.101-0.033 0.168 0 0.201 0.102l2.418 7.293c0.775 2.337 0.678 4.417-0.29 6.241-0.974 1.826-2.677 3.142-5.109 3.948-1.795 0.595-3.472 0.756-5.03 0.483-1.55-0.269-2.867-0.857-3.951-1.762-1.09-0.904-1.858-2.03-2.305-3.378l-0.955-2.882-9.58 3.176c-0.126 0.042-0.21 0-0.251-0.126zm21.952-7.068-7.52 2.493 0.955 2.881c0.269 0.812 0.887 1.391 1.855 1.735 0.971 0.335 2.077 0.297 3.317-0.115 0.989-0.328 1.714-0.862 2.175-1.602 0.452-0.744 0.523-1.586 0.212-2.523z" data-fill-palette-color="primary"/>
<path d="m27.379 222.56-6.968-10.891c-0.057-0.089-0.03-0.17 0.082-0.241l23.162-14.772c0.112-0.072 0.203-0.051 0.275 0.06l2.398 3.748c0.072 0.112 0.051 0.203-0.061 0.275l-19.179 12.224 4.442 6.942c0.075 0.117 0.057 0.212-0.055 0.283l-3.815 2.441c-0.112 0.072-0.205 0.049-0.281-0.069z" data-fill-palette-color="primary"/>
<path d="m39.635 236.82 22.439-16.673c0.092-0.059 0.177-0.053 0.254 0.02l4.234 3.969c0.082 0.077 0.097 0.164 0.043 0.259l-15.345 23.324c-0.071 0.115-0.156 0.127-0.252 0.036l-3.239-3.036c-0.077-0.073-0.08-0.166-9e-3 -0.281l1.675-2.441-3.972-3.724-2.321 1.835c-0.11 0.079-0.204 0.082-0.281 9e-3l-3.246-3.043c-0.077-0.073-0.071-0.157 0.02-0.254zm18.357-8.098-9.014 6.98 2.803 2.628 6.501-9.336 0.841-1.246z" data-fill-palette-color="primary"/>
<path d="m72.869 262.48-3.996-2.294c-0.069-0.04-0.077-0.106-0.024-0.198l5.699-9.846 3.4-16.698c0.03-0.105 0.091-0.132 0.183-0.079l3.858 2.215c0.115 0.066 0.158 0.152 0.128 0.258l-2.798 10.811 7.969-7.843c0.076-0.079 0.16-0.092 0.252-0.039l3.893 2.235c0.092 0.053 0.1 0.119 0.024 0.198l-12.661 11.197-5.709 10.025c-0.053 0.092-0.125 0.112-0.218 0.058z" data-fill-palette-color="primary"/>
<path d="m121.04 278.82-4.466-0.749c-0.131-0.022-0.185-0.098-0.164-0.23l4.591-27.125c0.018-0.105 0.079-0.148 0.183-0.131l4.428 0.743c0.105 0.018 0.148 0.079 0.13 0.183l-4.512 27.139c-0.022 0.131-0.085 0.188-0.19 0.17z" data-fill-palette-color="primary"/>
<path d="m146 279.79-3.996 0.21c-0.212 0.011-0.323-0.076-0.332-0.262l-1.47-27.232c-0.011-0.212 0.089-0.324 0.301-0.335l3.598-0.189 7.586 15.399-1.009-15.425c-0.011-0.212 0.103-0.324 0.341-0.337l3.956-0.208c0.166-9e-3 0.254 0.093 0.265 0.305l1.472 27.272c8e-3 0.159-0.057 0.242-0.196 0.25l-3.518 0.185-7.691-14.348 1.044 14.378c0.011 0.212-0.106 0.325-0.351 0.337z" data-fill-palette-color="primary"/>
<path d="m205.62 263.6-4.033 2.06c-0.095 0.048-0.172 0.013-0.232-0.105l-10.384-20.324-4.636 2.369c-0.118 0.06-0.207 0.031-0.268-0.087l-2.007-4.015c-0.048-0.095-0.025-0.166 0.07-0.215l13.552-6.924c0.118-0.06 0.201-0.043 0.249 0.051l2.043 3.998c0.06 0.118 0.043 0.201-0.051 0.249l-4.671 2.387 10.419 20.306c0.06 0.118 0.043 0.201-0.051 0.25z" data-fill-palette-color="primary"/>
<path d="m232.2 245.71c-1.071 0.923-2.299 1.5-3.685 1.732-1.391 0.226-2.756 0.106-4.095-0.36-1.334-0.471-2.48-1.261-3.438-2.372l-13.015-15.22c-0.069-0.08-0.064-0.155 0.017-0.225l3.392-2.925c0.08-0.069 0.155-0.064 0.225 0.017l13.075 15.168c0.589 0.684 1.308 1.076 2.157 1.176 0.839 0.1 1.573-0.121 2.202-0.662 0.648-0.559 0.985-1.261 1.01-2.106 0.026-0.854-0.256-1.623-0.845-2.307l-13.076-15.168c-0.069-0.08-0.064-0.155 0.017-0.225l3.4-2.931c0.08-0.069 0.155-0.064 0.224 0.017l13.136 15.116c0.975 1.131 1.594 2.393 1.858 3.786s0.182 2.752-0.245 4.076c-0.432 1.318-1.203 2.456-2.314 3.413z" data-fill-palette-color="primary"/>
<path d="m253.89 221.07-2.272 3.294c-0.121 0.175-0.257 0.209-0.41 0.104l-22.473-15.451c-0.175-0.121-0.202-0.268-0.082-0.443l2.046-2.966 16.83 3.385-12.838-8.612c-0.175-0.121-0.194-0.279-0.059-0.476l2.249-3.261c0.094-0.137 0.229-0.145 0.404-0.024l22.506 15.474c0.131 0.09 0.157 0.193 0.078 0.307l-2.001 2.901-16.06-2.661 12.029 7.945c0.175 0.121 0.193 0.282 0.053 0.484z" data-fill-palette-color="primary"/>
<path d="m273.7 181.18-4.458 12.137c-0.037 0.1-0.117 0.127-0.242 0.08l-25.81-9.524c-0.1-0.037-0.131-0.105-0.094-0.204l4.431-12.062c0.039-0.106 0.121-0.136 0.245-0.09l4.213 1.548c0.1 0.037 0.13 0.108 0.092 0.214l-2.829 7.698 5.858 2.152 2.829-7.698c0.039-0.106 0.108-0.141 0.207-0.104l4.265 1.524c0.1 0.037 0.13 0.108 0.091 0.214l-2.842 7.736 6.578 2.416 2.842-7.736c0.039-0.106 0.121-0.136 0.245-0.09l4.288 1.575c0.1 0.037 0.13 0.108 0.091 0.214z" data-fill-palette-color="primary"/>
<path d="m11.665 140c0-1.764 1.43-3.194 3.194-3.194s3.194 1.43 3.194 3.194-1.43 3.194-3.194 3.194-3.194-1.43-3.194-3.194z" data-fill-palette-color="primary"/>
<path d="m262.5 140c0-1.764 1.43-3.194 3.194-3.194s3.194 1.43 3.193 3.194c0 1.764-1.43 3.194-3.193 3.194-1.764 0-3.194-1.43-3.194-3.194z" data-fill-palette-color="primary"/>
</g>
</svg>
</svg>
</svg>
</svg>
</svg>
<rect width="280" height="280" fill="none" visibility="hidden"/>
</g>
</svg>
</g>
</svg>
